<?xml version="1.0" encoding="utf-8"?>
<!-- Generator: Adobe Illustrator 18.1.1, SVG Export Plug-In . SVG Version: 6.00 Build 0)  -->
<svg version="1.1" id="Layer_1" xmlns="http://www.w3.org/2000/svg" xmlns:xlink="http://www.w3.org/1999/xlink" x="0px" y="0px"
	 viewBox="0 0 792 612" enable-background="new 0 0 792 612" xml:space="preserve">
<g>
	<polygon fill="#1DC6DD" points="505.7,35.1 701.6,148.3 701.6,352.1 505.7,227.5 	"/>
	<polygon fill="#FFD91F" points="94.4,272.8 505.7,35.1 505.7,227.5 94.4,455 	"/>
	<polygon fill="#FF3985" points="94.4,455 309.4,578.5 701.6,352.1 505.7,227.5 	"/>
	<polygon fill="#383838" points="368.2,409.6 309.4,443.5 113.1,330.2 113.1,284.2 309.4,397.3 368.2,363.8 	"/>
	<polygon fill="#383838" points="270.2,261.5 270.4,284.2 250.2,295.6 230.9,284.3 	"/>
	<polygon fill="#383838" points="348.6,306.8 348.6,352.4 328.8,340.8 309.4,329.5 	"/>
	<polygon fill="#FFFFFF" points="387.8,125.6 564.3,227.5 603.5,227.5 682,182.2 682,159.6 525.1,69 485.9,69 	"/>
	<polygon fill="#383838" points="564.3,272.8 603.6,272.8 682,227.6 682,182.2 603.5,227.5 564.3,227.5 387.8,125.6 387.8,170.9 	
		"/>
	<polygon fill="#383838" points="485.9,125.6 582.7,182.2 603.6,171.1 505.3,114.3 	"/>
	<polygon fill="#383838" points="113.1,306.7 113.1,443.5 132.9,454.8 132.9,318.1 	"/>
	<polygon fill="#383838" points="309.4,420 309.4,555.9 289.8,544.5 289.8,408.7 	"/>
	<polygon fill="#383838" points="681.8,340.8 682,204.9 662.4,216.2 662.5,352.1 	"/>
	<polygon fill="#383838" points="132.9,454.9 152.5,443.5 152.5,327.9 132.9,318.1 	"/>
	<polygon fill="#383838" points="309.4,555.9 329,544.5 329,408.7 309.4,420 	"/>
	<polygon fill="#383838" points="662.5,352.1 642.6,340.8 642.6,221.1 662.4,216.2 	"/>
	<polygon fill="#383838" points="525,250.2 525.2,227.5 505.6,204.9 505.7,261.5 	"/>
	<polygon fill="#383838" points="505.7,261.5 485.8,250.2 485.8,204.9 505.6,216.3 	"/>
	<g>
		<path fill="#383838" d="M467.9,350.2l-58.3-34.3l-58.8,11.3c0,0-117.7-66-117.7-67.9c0-1.9,0-45.3,0-45.3l117.5,68l58.2-11.4
			l59.7,33.9l58.9-33.9l-0.1,45.2L467.9,350.2z"/>
		<polygon fill="#383838" points="311.6,191.4 312,168.9 370.4,202.7 350.8,214 		"/>
		<polygon fill="#FFFFFF" points="233.1,214 350.6,282 408.8,270.7 468.5,304.6 527.4,270.7 448.8,225.3 448.8,180 370.4,134.7 
			312,168.9 370.4,202.7 350.8,214 292,180 		"/>
	</g>
	<polygon fill="#FFFFFF" points="113.1,284.2 309.4,397.3 368.2,363.8 309.4,329.5 348.6,306.8 289.5,272.6 250.2,295.6 
		230.9,284.3 270.2,261.5 211.3,227.5 	"/>
</g>
</svg>
