<?xml version="1.0" encoding="utf-8"?>
<!-- Generator: Adobe Illustrator 21.1.0, SVG Export Plug-In . SVG Version: 6.00 Build 0)  -->
<svg version="1.1" id="Layer_1" xmlns="http://www.w3.org/2000/svg" xmlns:xlink="http://www.w3.org/1999/xlink" x="0px" y="0px"
	 viewBox="0 0 1792 1792" style="enable-background:new 0 0 1792 1792;" xml:space="preserve">
<style type="text/css">
	.st0{fill:#FFFFFF;}
</style>
<g>
	
		<image style="overflow:visible;opacity:0.75;" width="1614" height="1742" xlink:href="EDC4B45845287629.png"  transform="matrix(1 0 0 1 99 35)">
	</image>
	<g>
		<path class="st0" d="M1422.8,1448.6c12.6,12.6,27.4,18.8,44.6,18.8s32.1-6.3,44.6-18.8c12.6-12.6,18.8-27.4,18.8-44.6
			s-6.3-32.1-18.8-44.6c-12.6-12.6-27.4-18.8-44.6-18.8s-32.1,6.3-44.6,18.8c-12.6,12.6-18.8,27.4-18.8,44.6
			S1410.2,1436,1422.8,1448.6z M282.4,912.9c14.2,30.4,31.9,46,53.1,46.6c-9.9,11.2-18.2,27-24.8,47.1c-6.6,20.2-9.9,38.5-9.9,55.1
			c0,45.6,17.5,85,52.6,118.1c-11.9,21.2-17.9,44-17.9,68.5s5.8,48.8,17.4,72.9c11.6,24.1,27.3,41.5,47.1,52.1
			c-3.3,19.8-5,38.4-5,55.6c0,110.5,63.5,165.7,190.5,165.7h120c86.6,0,199.7-24.1,339.3-72.4c3.3-1.3,12.9-4.8,28.8-10.4
			s27.6-9.8,35.2-12.4c7.6-2.6,19.2-6.4,34.7-11.4s28.1-8.6,37.7-10.9c9.6-2.3,20.5-4.5,32.7-6.4c12.2-2,22.7-3,31.3-3h31.7V832.5
			h-31.7c-10.6,0-22.3-3-35.2-8.9c-12.9-6-26.1-14.9-39.7-26.8s-26.3-23.6-38.2-35.2c-11.9-11.6-25.1-26.1-39.7-43.7
			c-14.6-17.5-26-31.6-34.2-42.2c-8.3-10.6-18.7-24.1-31.3-40.7s-20.2-26.5-22.8-29.8c-36.4-45-61.8-75.1-76.4-90.3
			c-27.1-28.4-46.8-64.7-59-108.6s-22.3-85.5-30.3-124.5s-20.5-67.1-37.7-84.3c-63.5,0-105.8,15.5-127,46.6s-31.7,79-31.7,143.9
			c0,39,15.9,92.1,47.6,159.2c31.7,67.1,47.6,119.9,47.6,158.2H388.1c-33.1,0-62.5,12.7-88.3,38.2c-25.8,25.5-38.7,55.1-38.7,88.8
			C261.1,855.7,268.2,882.4,282.4,912.9z M209.5,653.9c50.3-50.3,109.8-75.4,178.6-75.4h174.6c-31.7-65.5-47.6-129-47.6-190.5
			c0-77.4,11.6-138.9,34.7-184.5s56.9-79.2,101.2-100.7s94.2-32.2,149.8-32.2c33.7,0,63.5,12.2,89.3,36.7
			c28.4,27.8,48.9,63.5,61.5,107.1c12.6,43.7,22.7,85.5,30.3,125.5s19.3,68.3,35.2,84.8c32.4,35.1,67.8,77.4,106.2,127
			c66.8,86.6,112.1,137.9,135.9,153.8h271.8c35.1,0,65,12.4,89.8,37.2c24.8,24.8,37.2,54.7,37.2,89.8v634.9
			c0,35.1-12.4,65-37.2,89.8c-24.8,24.8-54.7,37.2-89.8,37.2h-285.7c-14.6,0-60.2,13.2-136.9,39.7c-81.3,28.4-152.9,50.1-214.8,65
			s-124.5,22.3-188,22.3h-128c-93.3,0-168.3-26.6-225.2-79.9s-85-125.8-84.3-217.8c-39.7-50.9-59.5-109.8-59.5-176.6
			c0-14.6,1-28.8,3-42.7c-25.1-44.3-37.7-91.9-37.7-142.9c0-23.8,3-46.6,8.9-68.5c-32.4-48.9-48.6-102.8-48.6-161.7
			C134.1,763.4,159.2,704.2,209.5,653.9z"/>
	</g>
</g>
</svg>
